<svg id="visual" viewBox="0 0 900 600" width="900" height="600" xmlns="http://www.w3.org/2000/svg" xmlns:xlink="http://www.w3.org/1999/xlink" version="1.1"><rect x="0" y="0" width="900" height="600" fill="#FFFFFF"></rect><defs><linearGradient id="grad1_0" x1="33.3%" y1="0%" x2="100%" y2="100%"><stop offset="20%" stop-color="#c6bff3" stop-opacity="1"></stop><stop offset="80%" stop-color="#c6bff3" stop-opacity="1"></stop></linearGradient></defs><defs><linearGradient id="grad1_1" x1="33.3%" y1="0%" x2="100%" y2="100%"><stop offset="20%" stop-color="#c6bff3" stop-opacity="1"></stop><stop offset="80%" stop-color="#d0c9f5" stop-opacity="1"></stop></linearGradient></defs><defs><linearGradient id="grad1_2" x1="33.3%" y1="0%" x2="100%" y2="100%"><stop offset="20%" stop-color="#d9d4f7" stop-opacity="1"></stop><stop offset="80%" stop-color="#d0c9f5" stop-opacity="1"></stop></linearGradient></defs><defs><linearGradient id="grad1_3" x1="33.3%" y1="0%" x2="100%" y2="100%"><stop offset="20%" stop-color="#d9d4f7" stop-opacity="1"></stop><stop offset="80%" stop-color="#e3dff9" stop-opacity="1"></stop></linearGradient></defs><defs><linearGradient id="grad1_4" x1="33.3%" y1="0%" x2="100%" y2="100%"><stop offset="20%" stop-color="#ece9fb" stop-opacity="1"></stop><stop offset="80%" stop-color="#e3dff9" stop-opacity="1"></stop></linearGradient></defs><defs><linearGradient id="grad1_5" x1="33.3%" y1="0%" x2="100%" y2="100%"><stop offset="20%" stop-color="#ece9fb" stop-opacity="1"></stop><stop offset="80%" stop-color="#f6f4fd" stop-opacity="1"></stop></linearGradient></defs><defs><linearGradient id="grad1_6" x1="33.3%" y1="0%" x2="100%" y2="100%"><stop offset="20%" stop-color="#ffffff" stop-opacity="1"></stop><stop offset="80%" stop-color="#f6f4fd" stop-opacity="1"></stop></linearGradient></defs><defs><linearGradient id="grad2_0" x1="0%" y1="0%" x2="66.7%" y2="100%"><stop offset="20%" stop-color="#c6bff3" stop-opacity="1"></stop><stop offset="80%" stop-color="#c6bff3" stop-opacity="1"></stop></linearGradient></defs><defs><linearGradient id="grad2_1" x1="0%" y1="0%" x2="66.7%" y2="100%"><stop offset="20%" stop-color="#d0c9f5" stop-opacity="1"></stop><stop offset="80%" stop-color="#c6bff3" stop-opacity="1"></stop></linearGradient></defs><defs><linearGradient id="grad2_2" x1="0%" y1="0%" x2="66.7%" y2="100%"><stop offset="20%" stop-color="#d0c9f5" stop-opacity="1"></stop><stop offset="80%" stop-color="#d9d4f7" stop-opacity="1"></stop></linearGradient></defs><defs><linearGradient id="grad2_3" x1="0%" y1="0%" x2="66.7%" y2="100%"><stop offset="20%" stop-color="#e3dff9" stop-opacity="1"></stop><stop offset="80%" stop-color="#d9d4f7" stop-opacity="1"></stop></linearGradient></defs><defs><linearGradient id="grad2_4" x1="0%" y1="0%" x2="66.7%" y2="100%"><stop offset="20%" stop-color="#e3dff9" stop-opacity="1"></stop><stop offset="80%" stop-color="#ece9fb" stop-opacity="1"></stop></linearGradient></defs><defs><linearGradient id="grad2_5" x1="0%" y1="0%" x2="66.7%" y2="100%"><stop offset="20%" stop-color="#f6f4fd" stop-opacity="1"></stop><stop offset="80%" stop-color="#ece9fb" stop-opacity="1"></stop></linearGradient></defs><defs><linearGradient id="grad2_6" x1="0%" y1="0%" x2="66.7%" y2="100%"><stop offset="20%" stop-color="#f6f4fd" stop-opacity="1"></stop><stop offset="80%" stop-color="#ffffff" stop-opacity="1"></stop></linearGradient></defs><g transform="translate(900, 0)"><path d="M0 486.7C-38.4 415.5 -76.7 344.3 -135.5 327.1C-194.2 309.8 -273.4 346.5 -331.6 331.6C-389.9 316.7 -427.3 250.2 -449.7 186.3C-472.1 122.4 -479.4 61.2 -486.7 0L0 0Z" fill="#fafafe"></path><path d="M0 417.2C-32.9 356.2 -65.8 295.1 -116.1 280.3C-166.5 265.6 -234.3 297 -284.3 284.3C-334.2 271.5 -366.3 214.4 -385.5 159.7C-404.6 104.9 -410.9 52.5 -417.2 0L0 0Z" fill="#f1effc"></path><path d="M0 347.7C-27.4 296.8 -54.8 245.9 -96.8 233.6C-138.7 221.3 -195.3 247.5 -236.9 236.9C-278.5 226.2 -305.2 178.7 -321.2 133.1C-337.2 87.4 -342.4 43.7 -347.7 0L0 0Z" fill="#e8e4fa"></path><path d="M0 278.1C-21.9 237.4 -43.8 196.7 -77.4 186.9C-111 177 -156.2 198 -189.5 189.5C-222.8 181 -244.2 142.9 -257 106.4C-269.8 69.9 -273.9 35 -278.1 0L0 0Z" fill="#ded9f8"></path><path d="M0 208.6C-16.4 178.1 -32.9 147.6 -58.1 140.2C-83.2 132.8 -117.2 148.5 -142.1 142.1C-167.1 135.7 -183.1 107.2 -192.7 79.8C-202.3 52.5 -205.5 26.2 -208.6 0L0 0Z" fill="#d5cff6"></path><path d="M0 139.1C-11 118.7 -21.9 98.4 -38.7 93.4C-55.5 88.5 -78.1 99 -94.8 94.8C-111.4 90.5 -122.1 71.5 -128.5 53.2C-134.9 35 -137 17.5 -139.1 0L0 0Z" fill="#cbc4f4"></path><path d="M0 69.5C-5.5 59.4 -11 49.2 -19.4 46.7C-27.7 44.3 -39.1 49.5 -47.4 47.4C-55.7 45.2 -61 35.7 -64.2 26.6C-67.4 17.5 -68.5 8.7 -69.5 0L0 0Z" fill="#c6bff3"></path></g><g transform="translate(0, 600)"><path d="M0 -486.7C75.5 -492.7 151 -498.6 186.3 -449.7C221.5 -400.8 216.6 -297.1 244 -244C271.3 -190.8 331.1 -188.4 376.9 -156.1C422.8 -123.9 454.8 -62 486.7 0L0 0Z" fill="#fafafe"></path><path d="M0 -417.2C64.7 -422.3 129.4 -427.4 159.7 -385.5C189.9 -343.5 185.6 -254.6 209.1 -209.1C232.6 -163.6 283.8 -161.4 323.1 -133.8C362.4 -106.2 389.8 -53.1 417.2 0L0 0Z" fill="#f1effc"></path><path d="M0 -347.7C53.9 -351.9 107.9 -356.1 133.1 -321.2C158.2 -286.3 154.7 -212.2 174.3 -174.3C193.8 -136.3 236.5 -134.5 269.2 -111.5C302 -88.5 324.8 -44.3 347.7 0L0 0Z" fill="#e8e4fa"></path><path d="M0 -278.1C43.1 -281.5 86.3 -284.9 106.4 -257C126.6 -229 123.8 -169.7 139.4 -139.4C155.1 -109.1 189.2 -107.6 215.4 -89.2C241.6 -70.8 259.9 -35.4 278.1 0L0 0Z" fill="#ded9f8"></path><path d="M0 -208.6C32.4 -211.1 64.7 -213.7 79.8 -192.7C94.9 -171.8 92.8 -127.3 104.6 -104.6C116.3 -81.8 141.9 -80.7 161.5 -66.9C181.2 -53.1 194.9 -26.6 208.6 0L0 0Z" fill="#d5cff6"></path><path d="M0 -139.1C21.6 -140.8 43.1 -142.5 53.2 -128.5C63.3 -114.5 61.9 -84.9 69.7 -69.7C77.5 -54.5 94.6 -53.8 107.7 -44.6C120.8 -35.4 129.9 -17.7 139.1 0L0 0Z" fill="#cbc4f4"></path><path d="M0 -69.5C10.8 -70.4 21.6 -71.2 26.6 -64.2C31.6 -57.3 30.9 -42.4 34.9 -34.9C38.8 -27.3 47.3 -26.9 53.8 -22.3C60.4 -17.7 65 -8.9 69.5 0L0 0Z" fill="#c6bff3"></path></g></svg>